<?xml version="1.0" ?><svg id="Layer_1" style="enable-background:new 0 0 30 30;" version="1.1" viewBox="0 0 30 30" xml:space="preserve" xmlns="http://www.w3.org/2000/svg" xmlns:xlink="http://www.w3.org/1999/xlink"><style type="text/css">
	.st0{fill:#DEFBFF;}
	.st1{fill:#D2F9F8;}
	.st2{fill:#C8DBE0;}
	.st3{fill:#FED718;}
	.st4{fill:#DA8F00;}
</style><g><path class="st0" d="M18.083,9.63l8.25-2.126c0,0,4.75-0.82,2.542,1.903l-5.103,3.844c0,0-1.647,0.952-4.23-1.355l-1.999-2.095   L18.083,9.63z"/><path class="st1" d="M17.833,10.286l3.711,2.898c0,0,1.914,1.201,4.623-1.288l2.083-1.849l0.958-0.958c0,0,0.625-2.135-0.292-0.792   c-0.917,1.344-5.15,4.438-6.25,4.313C21.352,12.46,17.833,10.286,17.833,10.286z"/><g><path class="st2" d="M28.406,9.176c0,0-1.989-0.86-4.955,1.141c-0.81,0.546-1.658,1.203-4.058,1.909c0,0,2.082-0.879,2.865-1.388    C23.849,9.804,26.574,8.213,28.406,9.176z"/><path class="st2" d="M28.854,8.797c0,0-2.521-1.042-5.488,0.959c-0.81,0.546-1.658,1.203-4.058,1.909c0,0,2.082-0.879,2.865-1.388    C23.764,9.242,27.021,7.833,28.854,8.797z"/><path class="st2" d="M28.186,8.515c0,0-2.521-1.042-5.488,0.959c-0.81,0.546-0.669,0.499-3.107,1.491c0,0,1.131-0.461,1.913-0.97    C23.096,8.96,26.354,7.551,28.186,8.515z"/><path class="st2" d="M28.501,9.779c0,0-1.844-1.131-4.811,0.87c-0.81,0.546-0.814,0.833-3.214,1.539c0,0,1.238-0.51,2.021-1.019    C24.088,10.135,26.668,8.815,28.501,9.779z"/></g><polygon class="st3" points="13.813,5.63 16.333,5.63 16.5,7.192 13.458,7.192  "/><path class="st3" d="M12.994,8.317c0,0,2.777-2.25,4.361,0.604c0,0,0.917,2.458-1.292,2.417l-3.313-0.083   C12.75,11.255,12.279,8.463,12.994,8.317z"/><path class="st3" d="M12.598,11.88c0,0-3.681,4.875,1.111,13.958c0,0,2.083,3.042,4.333-3.583c0,0,2.75-9.667-2.458-10.708   L12.598,11.88z"/><path class="st4" d="M15.007,5.94c0,0,0.212,0.815-0.945,1.346l-0.604-0.094l0.354-1.563h1.258L15.007,5.94z"/><path class="st4" d="M13.25,11.546c-0.257,2.302,0.195,2.766-2.156,3.454c0,0,0.568-2.625,1.75-3.104c0,0-0.018-0.887,0.261,0   C13.132,11.982,13.26,11.456,13.25,11.546z"/><path class="st4" d="M12.123,15.098c0.561,0.895-0.74,2.802-0.74,2.802l-0.092-3.104C11.291,14.796,11.721,14.456,12.123,15.098z"/><path class="st4" d="M12.177,17.346c0,0,0.872,1.503,0.268,3.809l-1.735-2.546L12.177,17.346z"/><path class="st4" d="M11.864,20.14c0,0,3.115,1.901,0.308,3.802l-0.472-3.5L11.864,20.14z"/><path class="st4" d="M16.258,7.838c0,0-2.106,0.667-2.474,2.833c-0.369,2.167-1.186,0.798-1.186,0.798l0.292-3.048   C12.889,8.421,14.416,7.338,16.258,7.838z"/><path class="st0" d="M12.172,9.801c0,0-9.339-3.588-11.714-1.796c0,0,1.292,3.792,6.917,5.417   C7.375,13.421,11.136,12.305,12.172,9.801z"/><path class="st1" d="M10.013,11.883c0,0-3.934,2.448-9.183-4.328c0,0-0.806-0.735-0.042,0.874c0,0,3.607,4.208,5.773,4.563   c0,0,1.792,0.87,3.634-1.101"/><path class="st2" d="M0.615,7.503c0,0,1.977,2.693,6.206,2.18c1.155-0.14,2.414-0.383,5.296,0.243c0,0-2.659-0.239-3.763-0.126   C6.108,10.032,1.929,9.696,0.615,7.503z"/><path class="st2" d="M0.371,8.195c0,0,1.977,2.693,6.206,2.18c1.155-0.14,2.414-0.383,5.296,0.243c0,0-2.659-0.239-3.763-0.126   C5.865,10.723,1.686,10.388,0.371,8.195z"/><path class="st2" d="M0.891,8.915c0,0,1.977,2.693,6.206,2.18c1.155-0.14,0.981-0.17,4.072,0.152c0,0-1.434-0.148-2.539-0.035   C6.384,11.444,2.205,11.108,0.891,8.915z"/><path class="st2" d="M1.313,7.286c0,0,1.229,2.39,5.458,1.877c1.155-0.14,1.329-0.465,4.211,0.161c0,0-1.573-0.157-2.678-0.044   C6.058,9.512,2.627,9.478,1.313,7.286z"/><circle cx="16.904" cy="6.351" r="0.056"/><circle cx="13.049" cy="6.351" r="0.056"/><path class="st4" d="M13.312,23.686c2.432,0.955,0.856,2.796,0.856,2.796l-1.509-2.837C12.658,23.645,12.748,23.464,13.312,23.686z   "/><g><path d="M29.677,7.629c-0.859-1.29-5.561-0.143-5.606-0.13c-1.381,0.364-4.87,1.496-6.178,1.924V9.24    c-0.006-0.277-0.059-0.527-0.144-0.758l0.88-0.688c0.056-0.043,0.097-0.103,0.118-0.17c0.089-0.283,0.205-0.746,0.259-0.965    l0.964-0.737c0.153-0.117,0.183-0.337,0.065-0.49s-0.337-0.184-0.491-0.065l-1.063,0.813c-0.063,0.049-0.109,0.119-0.128,0.197    c0,0.002-0.133,0.563-0.243,0.936l-0.727,0.568c-0.046-0.052-0.086-0.108-0.139-0.156c-0.02-0.018-0.043-0.03-0.064-0.047    c0.425-0.228,0.719-0.671,0.719-1.186c0-0.745-0.606-1.35-1.351-1.35h-0.345c0.095-0.77,0.745-1.37,1.54-1.37    c0.221,0,0.4-0.179,0.4-0.4s-0.18-0.4-0.4-0.4c-1.236,0-2.242,0.959-2.34,2.17h-0.562c-0.099-1.211-1.104-2.17-2.341-2.17    c-0.221,0-0.4,0.179-0.4,0.4s0.179,0.4,0.4,0.4c0.795,0,1.446,0.6,1.541,1.37h-0.591c-0.745,0-1.35,0.605-1.35,1.35    c0,0.516,0.301,0.951,0.728,1.178c-0.024,0.02-0.05,0.034-0.073,0.054c-0.045,0.041-0.079,0.09-0.119,0.134l-0.68-0.532    c-0.11-0.373-0.243-0.933-0.243-0.935c-0.019-0.079-0.064-0.148-0.128-0.197l-1.063-0.813c-0.155-0.119-0.374-0.089-0.49,0.065    c-0.118,0.153-0.088,0.373,0.065,0.49l0.964,0.737c0.053,0.219,0.169,0.683,0.259,0.965c0.021,0.067,0.063,0.127,0.118,0.17    l0.823,0.643c-0.093,0.239-0.147,0.503-0.153,0.795l0.001,0.176c-1.306-0.427-4.798-1.56-6.179-1.925    c-0.047-0.012-4.746-1.16-5.607,0.13C0.064,8.018,0.156,8.51,0.6,9.091c0.972,1.274,1.78,2.183,4.799,4.058    c0.576,0.357,1.191,0.669,1.942,0.669c0.861,0,1.9-0.41,3.26-1.632c0.322-0.289,1.001-0.929,1.51-1.412    c0.019,0.155,0.077,0.35,0.229,0.533c0.051,0.061,0.115,0.111,0.179,0.161l-2.264,1.228c-0.097,0.053-0.164,0.148-0.18,0.258    l-0.226,1.584l-1.627,0.968c-0.167,0.099-0.221,0.313-0.122,0.479c0.065,0.11,0.182,0.171,0.301,0.171    c0.061,0,0.123-0.016,0.178-0.049l1.771-1.054c0.091-0.054,0.153-0.146,0.168-0.251l0.225-1.576l1.07-0.581    c-0.459,0.72-0.814,1.527-1.011,2.381c-0.207,0.895-0.246,1.835-0.137,2.796c-0.247,0.525-0.994,1.983-2.385,3.632    c-0.125,0.147-0.106,0.368,0.042,0.493c0.065,0.056,0.146,0.082,0.226,0.082c0.1,0,0.198-0.042,0.268-0.124    c0.954-1.131,1.608-2.163,2.025-2.904c0.71,4.083,1.776,8.026,4.066,8.026c2.199,0,3.269-3.779,4.06-8.041    c0.417,0.743,1.073,1.78,2.034,2.919c0.069,0.082,0.168,0.124,0.268,0.124c0.08,0,0.16-0.026,0.226-0.082    c0.147-0.125,0.167-0.346,0.042-0.493c-1.392-1.65-2.138-3.108-2.385-3.633c0.251-1.964-0.136-3.741-1.151-5.235l1.084,0.567    l0.25,1.572c0.017,0.105,0.08,0.196,0.172,0.249l1.788,1.027c0.055,0.031,0.114,0.046,0.174,0.046    c0.121,0,0.239-0.063,0.304-0.176c0.096-0.167,0.038-0.381-0.13-0.478L20,14.453l-0.251-1.58    c-0.018-0.109-0.086-0.204-0.184-0.255l-2.126-1.111c0.083-0.058,0.158-0.123,0.221-0.199c0.156-0.189,0.212-0.386,0.23-0.533    c0.509,0.482,1.188,1.123,1.509,1.411c1.36,1.222,2.399,1.632,3.26,1.632c0.751,0,1.366-0.312,1.941-0.669    c3.02-1.874,3.827-2.783,4.8-4.058C29.844,8.51,29.937,8.018,29.677,7.629z M18.309,18.146c-0.095,0.536-0.22,1.236-0.376,1.994    h-6.069c-0.16-0.802-0.277-1.513-0.356-1.989c-0.001-0.004-0.001-0.008-0.001-0.013h6.803    C18.309,18.141,18.309,18.144,18.309,18.146z M17.232,22.942h-4.677c-0.203-0.654-0.377-1.342-0.523-2.001h5.728    C17.609,21.608,17.434,22.292,17.232,22.942z M18.31,15.336c0.125,0.631,0.157,1.299,0.098,2.001h-6.991    c-0.044-0.687,0.005-1.356,0.141-2.001L18.31,15.336z M11.775,14.537c0.491-1.447,1.326-2.338,1.789-2.747    c0.05,0.002,0.094,0.01,0.147,0.01c0.016,0,0.033,0,0.049,0c0.019,0,0.036-0.009,0.054-0.012c0.02,0.003,0.037,0.012,0.058,0.012    h2.37c0.007,0,0.013,0,0.019,0c0.877,0.802,1.488,1.717,1.837,2.737L11.775,14.537z M16.246,10.999h-2.375    c-0.02,0-0.037,0.009-0.057,0.011c-0.023-0.003-0.041-0.012-0.066-0.011c-0.081,0.001-0.155-0.003-0.226-0.008    c-0.035-0.008-0.068-0.012-0.104-0.011c-0.217-0.028-0.378-0.087-0.457-0.176c-0.071-0.08-0.061-0.172-0.054-0.25V9.256    c0.008-0.403,0.134-0.71,0.384-0.939c0.59-0.541,1.67-0.475,1.68-0.473c0.007,0,0.014-0.003,0.021-0.003h0.01    c0.009,0,0.017,0.004,0.025,0.003c0.009-0.001,1.089-0.068,1.68,0.473c0.25,0.229,0.376,0.536,0.384,0.931l0.009,1.385    c0,0.001,0.006,0.09-0.057,0.164C16.935,10.93,16.639,11.01,16.246,10.999z M12.901,6.49c0-0.189,0.102-0.349,0.249-0.448    c0.076,0.087,0.145,0.203,0.145,0.35c0,0.165-0.093,0.326-0.254,0.456C12.957,6.751,12.901,6.628,12.901,6.49z M16.056,5.94    c-0.044,0.125-0.074,0.254-0.074,0.389c0,0.258,0.09,0.5,0.242,0.712h-1.409c-0.019,0-0.032,0-0.054,0h-0.964    c0.126-0.197,0.197-0.418,0.197-0.648c0-0.158-0.039-0.308-0.099-0.452H16.056z M16.979,6.817    c-0.186-0.132-0.298-0.306-0.298-0.489c0-0.13,0.055-0.236,0.12-0.319c0.174,0.092,0.297,0.27,0.297,0.481    C17.099,6.615,17.05,6.725,16.979,6.817z M10.133,11.665c-2.369,2.128-3.43,1.469-4.365,0.889    C2.851,10.743,2.08,9.877,1.156,8.666C0.928,8.367,0.834,8.124,0.905,8.018c0.144-0.215,0.674-0.299,1.356-0.299    c1.094,0,2.58,0.216,3.49,0.457c1.324,0.35,4.738,1.456,6.084,1.895C11.326,10.553,10.497,11.339,10.133,11.665z M14.908,26.229    c-0.874,0-1.556-1.086-2.078-2.486h4.132C16.439,25.155,15.765,26.229,14.908,26.229z M28.844,8.666    c-0.924,1.211-1.695,2.077-4.612,3.888c-0.935,0.581-1.995,1.239-4.364-0.889c-0.363-0.327-1.193-1.112-1.702-1.595    c1.346-0.439,4.76-1.545,6.084-1.895c1.478-0.391,4.472-0.719,4.846-0.158C29.166,8.124,29.072,8.367,28.844,8.666z"/></g></g></svg>